<?xml version="1.0" encoding="utf-8"?>
<!-- Generator: Adobe Illustrator 22.1.0, SVG Export Plug-In . SVG Version: 6.00 Build 0)  -->
<svg version="1.1" id="Layer_1" xmlns="http://www.w3.org/2000/svg" xmlns:xlink="http://www.w3.org/1999/xlink" x="0px" y="0px"
	 viewBox="0 0 68 85" style="enable-background:new 0 0 68 85;" xml:space="preserve">
<g>
	<path d="M31.8,6.6L33,5.4v4.3c0,0.6,0.4,1,1,1s1-0.4,1-1V5.4l1.2,1.2c0.2,0.2,0.5,0.3,0.7,0.3s0.5-0.1,0.7-0.3c0.4-0.4,0.4-1,0-1.4
		l-2.9-2.9c-0.1-0.1-0.2-0.2-0.3-0.2c-0.2-0.1-0.5-0.1-0.8,0c-0.1,0.1-0.2,0.1-0.3,0.2l-2.9,2.9c-0.4,0.4-0.4,1,0,1.4
		S31.4,7,31.8,6.6z"/>
	<path d="M36.2,61.4L35,62.6v-4.3c0-0.6-0.4-1-1-1s-1,0.4-1,1v4.3l-1.2-1.2c-0.4-0.4-1-0.4-1.4,0s-0.4,1,0,1.4l2.9,2.9
		c0.1,0.1,0.2,0.2,0.3,0.2C33.7,66,33.9,66,34,66s0.3,0,0.4-0.1c0.1-0.1,0.2-0.1,0.3-0.2l2.9-2.9c0.4-0.4,0.4-1,0-1.4
		S36.6,61,36.2,61.4z"/>
	<path d="M65.9,34.4c0.1-0.2,0.1-0.5,0-0.8c-0.1-0.1-0.1-0.2-0.2-0.3l-2.9-2.9c-0.4-0.4-1-0.4-1.4,0s-0.4,1,0,1.4l1.2,1.2h-4.3
		c-0.6,0-1,0.4-1,1s0.4,1,1,1h4.3l-1.2,1.2c-0.4,0.4-0.4,1,0,1.4c0.2,0.2,0.5,0.3,0.7,0.3s0.5-0.1,0.7-0.3l2.9-2.9
		C65.8,34.6,65.9,34.5,65.9,34.4z"/>
	<path d="M9.7,33H5.4l1.2-1.2c0.4-0.4,0.4-1,0-1.4s-1-0.4-1.4,0l-2.9,2.9c-0.1,0.1-0.2,0.2-0.2,0.3C2,33.7,2,33.9,2,34
		s0,0.3,0.1,0.4c0.1,0.1,0.1,0.2,0.2,0.3l2.9,2.9c0.2,0.2,0.5,0.3,0.7,0.3s0.5-0.1,0.7-0.3c0.4-0.4,0.4-1,0-1.4L5.4,35h4.3
		c0.6,0,1-0.4,1-1S10.3,33,9.7,33z"/>
	<path d="M56.3,11.2c-0.1-0.1-0.3-0.1-0.4-0.1h-4.1c-0.6,0-1,0.4-1,1s0.4,1,1,1h1.7l-3,3c-0.4,0.4-0.4,1,0,1.4
		c0.2,0.2,0.5,0.3,0.7,0.3s0.5-0.1,0.7-0.3l3-3v1.7c0,0.6,0.4,1,1,1s1-0.4,1-1v-4.1c0-0.1,0-0.3-0.1-0.4
		C56.7,11.5,56.5,11.3,56.3,11.2z"/>
	<path d="M16.1,50.5l-3,3v-1.7c0-0.6-0.4-1-1-1s-1,0.4-1,1v4.1c0,0.1,0,0.3,0.1,0.4c0.1,0.2,0.3,0.4,0.5,0.5
		c0.1,0.1,0.3,0.1,0.4,0.1h4.1c0.6,0,1-0.4,1-1s-0.4-1-1-1h-1.7l3-3c0.4-0.4,0.4-1,0-1.4S16.5,50.1,16.1,50.5z"/>
	<path d="M55.9,50.8c-0.6,0-1,0.4-1,1v1.7l-3-3c-0.4-0.4-1-0.4-1.4,0s-0.4,1,0,1.4l3,3h-1.7c-0.6,0-1,0.4-1,1s0.4,1,1,1h4.1
		c0.1,0,0.3,0,0.4-0.1c0.2-0.1,0.4-0.3,0.5-0.5c0.1-0.1,0.1-0.3,0.1-0.4v-4.1C56.9,51.3,56.5,50.8,55.9,50.8z"/>
	<path d="M12.1,17.2c0.6,0,1-0.4,1-1v-1.7l3,3c0.2,0.2,0.5,0.3,0.7,0.3s0.5-0.1,0.7-0.3c0.4-0.4,0.4-1,0-1.4l-3-3h1.7
		c0.6,0,1-0.4,1-1s-0.4-1-1-1h-4.1c-0.1,0-0.3,0-0.4,0.1c-0.2,0.1-0.4,0.3-0.5,0.5c-0.1,0.1-0.1,0.3-0.1,0.4v4.1
		C11.1,16.7,11.5,17.2,12.1,17.2z"/>
	<path d="M35,16.2v8.2c2.1,0,4.3-0.2,6.4-0.5C39.9,19.8,37.6,16.9,35,16.2z"/>
	<path d="M33,26.5c-2.3,0-4.6-0.2-7-0.5c-0.6,2.2-0.9,4.5-1,7.1h8V26.5z"/>
	<path d="M33,16.2c-2.6,0.6-4.9,3.6-6.4,7.8c2.1,0.3,4.2,0.4,6.4,0.5V16.2z"/>
	<path d="M33,35h-7.9c0.1,2.5,0.4,4.9,1,7.1c2.3-0.3,4.6-0.5,7-0.5L33,35L33,35z"/>
	<path d="M33,51.8v-8.2c-2.1,0-4.3,0.2-6.4,0.5C28.1,48.2,30.4,51.1,33,51.8z"/>
	<path d="M44.9,35c-0.1,2.6-0.4,5.1-1,7.4c1.7,0.3,3.5,0.7,5.2,1.1c1.6-2.5,2.5-5.4,2.7-8.5H44.9z"/>
	<path d="M42,25.9c-2.3,0.3-4.6,0.5-7,0.5V33h7.9C42.9,30.5,42.5,28.1,42,25.9z"/>
	<path d="M23.1,35h-6.9c0.2,3.1,1.1,6,2.7,8.5c1.7-0.5,3.4-0.8,5.2-1.1C23.5,40.1,23.1,37.6,23.1,35z"/>
	<path d="M23.1,33c0.1-2.6,0.4-5.1,1-7.4c-1.7-0.3-3.5-0.7-5.2-1.1c-1.6,2.5-2.5,5.4-2.7,8.5H23.1z"/>
	<path d="M28.2,17.1c-3.2,1.1-6,3.1-8.1,5.6c1.5,0.4,3,0.7,4.5,0.9C25.5,21,26.7,18.8,28.2,17.1z"/>
	<path d="M35,51.8c2.6-0.6,4.9-3.6,6.4-7.8c-2.1-0.3-4.2-0.4-6.4-0.5V51.8z"/>
	<path d="M39.8,50.9c3.2-1.1,6-3.1,8.1-5.6c-1.5-0.4-3-0.7-4.5-0.9C42.5,47,41.3,49.2,39.8,50.9z"/>
	<path d="M20.1,45.2c2.1,2.6,4.9,4.5,8.1,5.7c-1.5-1.6-2.7-3.9-3.6-6.6C23.1,44.5,21.6,44.9,20.1,45.2z"/>
	<path d="M47.9,22.8c-2.1-2.6-4.9-4.5-8.1-5.7c1.5,1.6,2.7,3.9,3.6,6.6C44.9,23.5,46.4,23.1,47.9,22.8z"/>
	<path d="M42.9,35H35v6.5c2.3,0,4.6,0.2,7,0.5C42.5,39.9,42.9,37.5,42.9,35z"/>
	<path d="M44.9,33h6.9c-0.2-3.1-1.1-6-2.7-8.5c-1.7,0.5-3.4,0.8-5.2,1.1C44.5,27.9,44.9,30.4,44.9,33z"/>
</g>
</svg>
