<?xml version="1.0" encoding="utf-8"?>
<!-- Generator: Adobe Illustrator 22.1.0, SVG Export Plug-In . SVG Version: 6.00 Build 0)  -->
<svg version="1.1"
	 id="Layer_1" xmlns:cc="http://creativecommons.org/ns#" xmlns:dc="http://purl.org/dc/elements/1.1/" xmlns:inkscape="http://www.inkscape.org/namespaces/inkscape" xmlns:rdf="http://www.w3.org/1999/02/22-rdf-syntax-ns#" xmlns:sodipodi="http://sodipodi.sourceforge.net/DTD/sodipodi-0.dtd" xmlns:svg="http://www.w3.org/2000/svg"
	 xmlns="http://www.w3.org/2000/svg" xmlns:xlink="http://www.w3.org/1999/xlink" x="0px" y="0px" viewBox="0 0 100 125"
	 style="enable-background:new 0 0 100 125;" xml:space="preserve">
<g transform="translate(0,-952.36218)">
	<path d="M42.2,962.7l-3.3,8.8c-0.2,0.5-0.7,0.8-1.2,0.7l-9.3-1.9l1.6,9.3c0.1,0.5-0.2,0.9-0.7,1.1l-9,3l6.1,7.2
		c0.3,0.4,0.3,0.9,0,1.3l-6.3,7.1l8.9,3.2c0.5,0.2,0.7,0.7,0.6,1.2l-1.9,9.2l9.3-1.6c0.5-0.1,1,0.2,1.1,0.7l3,9l8-6.6
		c0.4-0.3,0.9-0.3,1.3,0l8,6.6l3-9c0.2-0.5,0.6-0.7,1.1-0.7l9.4,1.6l-1.9-9.2c-0.1-0.5,0.2-1,0.6-1.2l8.9-3.2l-6.3-7.1
		c-0.3-0.4-0.3-0.9,0-1.3l6.1-7.2l-9-3c-0.5-0.2-0.7-0.6-0.7-1.1l1.6-9.3l-9.3,1.9c-0.5,0.1-1-0.2-1.1-0.7l-3.3-8.8l-7.1,6.2
		c-0.4,0.3-0.9,0.3-1.3,0L42.2,962.7z M50,973.9c9.9,0,18,8.1,18,18c0,9.9-8.1,18-18,18c-9.9,0-18-8.1-18-18S40.1,973.9,50,973.9z"
		/>
	<path d="M36.7,1013.5l3.2,9.5c0.1,0.2,0.2,0.4,0.4,0.5L29.6,1042l-1.5-10.4c-0.1-0.5-0.6-0.9-1.1-0.8c-0.1,0-0.1,0-0.2,0.1
		l-9.8,3.9l10.8-18.5l0.7-1.2c0,0,0,0,0,0L36.7,1013.5L36.7,1013.5z"/>
	<path d="M63.3,1013.5l8.3,1.4l11.5,19.8l-9.8-3.9c-0.5-0.2-1.1,0-1.3,0.6c0,0.1,0,0.1-0.1,0.2l-1.5,10.4l-10.7-18.4
		c0.2-0.1,0.3-0.3,0.4-0.5L63.3,1013.5L63.3,1013.5z"/>
	<path d="M50,975.9c8.8,0,16,7.1,16,16s-7.1,16-16,16s-16-7.1-16-16S41.1,975.9,50,975.9z"/>
</g>
</svg>
