<?xml version="1.0" encoding="utf-8"?>
<!-- Generator: Adobe Illustrator 22.1.0, SVG Export Plug-In . SVG Version: 6.00 Build 0)  -->
<svg version="1.1" id="Layer_1" xmlns="http://www.w3.org/2000/svg" xmlns:xlink="http://www.w3.org/1999/xlink" x="0px" y="0px"
	 viewBox="0 0 50 62.5" style="enable-background:new 0 0 50 62.5;" xml:space="preserve">
<style type="text/css">
	.st0{fill:none;}
</style>
<g>
	<g>
		<path class="st0" d="M16.8,34.4l1.8-2.9L18,30.9c-0.6-0.6-1.3-0.2-1.4,0c-0.2,0.2-1.2,1.7-1.9,3c-0.1,0.1-0.1,0.3-0.1,0.5
			c0.1,0.2,0.3,0.4,0.6,0.5C15.6,35.1,16.4,34.7,16.8,34.4C16.8,34.5,16.8,34.5,16.8,34.4z"/>
	</g>
	<g>
		<path class="st0" d="M15.5,30.1c-0.2-0.3-0.4-0.6-0.6-0.7c-0.1-0.1-0.5,0-1,0.1c-0.2,0.9-1,1.8-1.3,2.2c-0.1,0.3-0.4,1.1,0,1.4
			c0.2,0.1,0.6,0.1,1,0C14.1,32.3,15.1,30.7,15.5,30.1z"/>
	</g>
	<g>
		<path class="st0" d="M12.8,28.9c-0.1-0.2-0.2-0.5-0.6-0.6c-0.4-0.1-0.9,0.1-1.4,0.6l0,0c-0.1,0.3-0.2,1.1,0,1.6
			c0.1,0.1,0.6,0.2,1,0.2C12.4,30,12.8,29.1,12.8,28.9z"/>
	</g>
	<g>
		<path class="st0" d="M21.6,33.6c-0.4-0.4-0.7-0.7-0.9-0.9c-0.4-0.3-0.7-0.5-0.9-0.6l-1.9,3l0,0l0,0c0,0.1-0.1,0.7,0.6,1
			c0.3,0.2,1.2-0.3,1.8-0.8L21.6,33.6z"/>
	</g>
	<g>
		<path class="st0" d="M21.6,35.9c0.1,0.3,0.4,0.9,1,1.2c0.4,0.2,1.1-0.3,1.6-0.8c-0.4-0.4-1.1-1.1-1.7-1.7L21.6,35.9z"/>
	</g>
	<g>
		
			<rect x="36.9" y="13.8" transform="matrix(0.9305 -0.3662 0.3662 0.9305 -4.8512 16.1846)" class="st0" width="6.7" height="14.2"/>
	</g>
	<g>
		<path class="st0" d="M30.9,18.9c-1.4,0-2.8-0.6-4-1.1c-0.8-0.4-1.6-0.7-2.2-0.8c-1.4-0.2-5.2,1.9-5.7,2.4
			c-0.1,0.1-0.2,0.4-0.2,0.7c-0.1,0.5-0.3,1.2-0.9,1.9c-1.1,1.3-0.8,1.6-0.6,1.8c0.3,0.2,2.4-0.4,5.1-3.3c0.2-0.3,0.6-0.3,0.9-0.1
			l10.8,8.9c0.5-0.5,1.6-1.3,2.8-1.7c0.3-0.1,0.6-0.2,1-0.2L34.1,18C32.8,18.5,31.7,18.9,30.9,18.9z"/>
	</g>
	<g>
		<path d="M47.3,26.4L41.7,12c-0.1-0.2-0.2-0.3-0.3-0.4c-0.2-0.1-0.3-0.1-0.5,0l-7.4,2.9c-0.3,0.1-0.5,0.5-0.4,0.8l0.6,1.4
			c-1.1,0.5-2.1,0.8-2.7,0.8c-1.2,0-2.3-0.5-3.5-1c-0.9-0.4-1.8-0.8-2.6-0.9c-0.9-0.1-2.3,0.3-3.5,0.9c-0.1-0.1-0.3-0.2-0.4-0.2
			h-9.2c-0.6,0-2.6-1.3-4-2.5c-0.3-0.1-0.8-0.1-1,0.2s-0.2,0.7,0.1,0.9c0.6,0.5,3.4,2.8,4.8,2.8h7.4c-0.6,0.3-1,0.6-1.1,0.8
			c-0.4,0.4-0.5,0.8-0.6,1.3s-0.2,0.9-0.6,1.4c-0.5,0.6-1.9,2.2-0.6,3.5c0.2,0.2,0.6,0.4,1.1,0.4c1.4,0,3.4-1.3,5.4-3.3l10.7,8.8
			c0.4,0.5,0.8,1.2,0.7,1.4c-0.4,0.4-0.7,0.5-1.1,0.6c-0.3,0-0.6-0.1-1-0.3l0,0c-0.4-0.2-0.7-0.5-1.1-0.9c-2.1-2.1-6.1-5.2-6.2-5.3
			c-0.3-0.2-0.7-0.2-0.9,0.1c-0.2,0.3-0.2,0.7,0.1,0.9c0,0,4.1,3.2,6.1,5.2c0.4,0.4,0.8,0.7,1.1,0.9c0,0.1-0.1,0.4-0.6,0.9
			s-1.4,0.2-1.8,0c-0.1,0-0.1-0.1-0.2-0.1l-6.6-5.8C21.6,28,21.2,28,21,28.3c-0.2,0.3-0.2,0.7,0.1,0.9L28,35c0,0.2-0.2,0.4-0.5,0.8
			c-0.6,0.6-1.6,0.1-1.9-0.1c-0.5-0.5-3.1-3.2-4-4c-0.8-0.7-1.4-0.9-1.7-1l-1-0.9c-0.7-0.6-1.6-0.7-2.2-0.5
			c-0.2-0.4-0.5-0.8-0.9-1.1c-0.5-0.4-1.3-0.3-1.9-0.1c-0.3-0.6-0.8-1-1.3-1.1c-0.8-0.2-1.6,0.1-2.5,0.8c-1.3-0.5-5.3-2-6.5-2.3
			c-0.3-0.1-0.7,0.1-0.8,0.5c-0.1,0.3,0.1,0.7,0.5,0.8C4.2,27.1,8,28.5,9.4,29c-0.1,0.5-0.1,1.3,0.2,2s1,0.9,1.7,0.9
			c-0.1,0.7,0,1.6,0.7,2.1c0.4,0.3,0.9,0.4,1.4,0.3c0,0.1,0,0.3,0.1,0.4c0.1,0.4,0.5,0.9,1.3,1.3c0.7,0.3,1.5,0.1,2.1-0.1
			c0.2,0.5,0.5,1,1.2,1.3c0.9,0.4,1.9-0.1,2.6-0.5c0.3,0.5,0.7,1.1,1.5,1.4c0.2,0.1,0.5,0.1,0.7,0.1c1,0,1.9-0.8,2.4-1.3
			c0.4,0.2,0.9,0.3,1.4,0.3c0.6,0,1.2-0.2,1.7-0.7s0.7-0.9,0.8-1.2c0.3,0.1,0.5,0.1,0.8,0.1c0.6,0,1.2-0.2,1.7-0.7s0.7-0.9,0.8-1.2
			c0.2,0.1,0.4,0.1,0.7,0.1h0.1c0.7,0,1.4-0.3,2-0.9c0.8-0.8,0.1-2-0.3-2.7c0.5-0.4,1.3-1.1,2.3-1.4c0.3-0.1,0.7-0.2,1.1-0.3
			l0.5,1.3c0.1,0.2,0.2,0.3,0.3,0.4c0.1,0,0.2,0.1,0.3,0.1s0.2,0,0.2,0l7.4-2.9C47.3,27.1,47.4,26.8,47.3,26.4z M10.7,30.5
			c-0.2-0.5-0.1-1.3,0-1.6l0,0c0.6-0.5,1.1-0.7,1.4-0.6c0.4,0.1,0.5,0.5,0.6,0.6c0.1,0.2-0.4,1-1,1.8C11.3,30.7,10.8,30.7,10.7,30.5
			z M12.6,33.1c-0.4-0.3-0.1-1.1,0-1.4c0.4-0.4,1.1-1.3,1.3-2.2c0.4-0.1,0.8-0.2,1-0.1s0.4,0.4,0.6,0.7c-0.5,0.6-1.4,2.2-1.9,2.9
			C13.3,33.1,12.8,33.2,12.6,33.1z M15.2,35c-0.3-0.1-0.5-0.3-0.6-0.5s0-0.4,0.1-0.5c0.8-1.3,1.7-2.8,1.9-3c0.1-0.1,0.8-0.5,1.4,0
			l0.7,0.6l-1.8,2.9v0.1C16.4,34.8,15.6,35.2,15.2,35z M18.5,36.2c-0.7-0.4-0.7-0.9-0.6-1l0,0l0,0l1.9-3c0.2,0.1,0.5,0.3,0.9,0.6
			c0.2,0.2,0.5,0.5,0.9,0.9l-1.2,1.7C19.8,35.9,18.9,36.3,18.5,36.2z M22.6,37c-0.6-0.3-0.9-0.8-1-1.2l0.9-1.3
			c0.6,0.7,1.3,1.3,1.7,1.7C23.7,36.7,23,37.2,22.6,37z M36.8,27.6c-1.3,0.4-2.3,1.2-2.8,1.7l-10.8-8.9c-0.3-0.2-0.7-0.2-0.9,0.1
			c-2.7,2.9-4.8,3.5-5.1,3.3c-0.2-0.2-0.5-0.5,0.6-1.8c0.6-0.7,0.8-1.4,0.9-1.9c0.1-0.3,0.1-0.6,0.2-0.7c0.5-0.5,4.3-2.6,5.7-2.4
			c0.6,0.1,1.4,0.4,2.2,0.8c1.2,0.5,2.6,1.1,4,1.1c0.8,0,1.9-0.4,3.2-0.9l3.7,9.3C37.4,27.4,37,27.5,36.8,27.6z M39.7,28.7
			l-5.2-13.2l6.2-2.4l5.2,13.2L39.7,28.7z"/>
	</g>
</g>
</svg>
